<mxfile host="app.diagrams.net" agent="Mozilla/5.0 (Windows NT 10.0; Win64; x64) AppleWebKit/537.36 (KHTML, like Gecko) Chrome/131.0.0.0 Safari/537.36" version="25.0.3">
  <diagram name="Page-1" id="ryrilysIZYAmCzkLsP5j">
    <mxGraphModel dx="1259" dy="686" grid="1" gridSize="10" guides="1" tooltips="1" connect="1" arrows="1" fold="1" page="1" pageScale="1" pageWidth="850" pageHeight="1100" math="0" shadow="0">
      <root>
        <mxCell id="0" />
        <mxCell id="1" parent="0" />
        <mxCell id="73XgOkGAvO3gkQtrD0CN-1" value="" style="sketch=0;aspect=fixed;pointerEvents=1;shadow=0;dashed=0;html=1;strokeColor=none;labelPosition=center;verticalLabelPosition=bottom;verticalAlign=top;align=center;fillColor=#00188D;shape=mxgraph.azure.laptop" vertex="1" parent="1">
          <mxGeometry x="140" y="145" width="166.67" height="100" as="geometry" />
        </mxCell>
        <mxCell id="73XgOkGAvO3gkQtrD0CN-2" value="" style="html=1;verticalLabelPosition=bottom;align=center;labelBackgroundColor=#ffffff;verticalAlign=top;strokeWidth=2;strokeColor=#0080F0;shadow=0;dashed=0;shape=mxgraph.ios7.icons.smartphone;" vertex="1" parent="1">
          <mxGeometry x="530" y="140" width="70" height="110" as="geometry" />
        </mxCell>
        <mxCell id="73XgOkGAvO3gkQtrD0CN-3" style="edgeStyle=orthogonalEdgeStyle;rounded=0;orthogonalLoop=1;jettySize=auto;html=1;entryX=0.878;entryY=0.51;entryDx=0;entryDy=0;entryPerimeter=0;" edge="1" parent="1" source="73XgOkGAvO3gkQtrD0CN-2" target="73XgOkGAvO3gkQtrD0CN-1">
          <mxGeometry relative="1" as="geometry" />
        </mxCell>
        <mxCell id="73XgOkGAvO3gkQtrD0CN-4" value="&lt;b&gt;Server&lt;/b&gt;" style="text;html=1;align=center;verticalAlign=middle;resizable=0;points=[];autosize=1;strokeColor=none;fillColor=none;" vertex="1" parent="1">
          <mxGeometry x="535" y="270" width="60" height="30" as="geometry" />
        </mxCell>
        <mxCell id="73XgOkGAvO3gkQtrD0CN-5" value="&lt;b&gt;Client&lt;/b&gt;" style="text;html=1;align=center;verticalAlign=middle;resizable=0;points=[];autosize=1;strokeColor=none;fillColor=none;" vertex="1" parent="1">
          <mxGeometry x="193.33999999999997" y="250" width="60" height="30" as="geometry" />
        </mxCell>
        <mxCell id="73XgOkGAvO3gkQtrD0CN-6" value="" style="html=1;verticalLabelPosition=bottom;align=center;labelBackgroundColor=#ffffff;verticalAlign=top;strokeWidth=2;strokeColor=#0080F0;shadow=0;dashed=0;shape=mxgraph.ios7.icons.box;" vertex="1" parent="1">
          <mxGeometry x="490" y="380" width="130" height="160" as="geometry" />
        </mxCell>
        <mxCell id="73XgOkGAvO3gkQtrD0CN-7" value="" style="sketch=0;html=1;aspect=fixed;strokeColor=none;shadow=0;fillColor=#3B8DF1;verticalAlign=top;labelPosition=center;verticalLabelPosition=bottom;shape=mxgraph.gcp2.lock" vertex="1" parent="1">
          <mxGeometry x="531.6" y="460" width="46.8" height="60" as="geometry" />
        </mxCell>
        <mxCell id="73XgOkGAvO3gkQtrD0CN-9" style="edgeStyle=orthogonalEdgeStyle;rounded=0;orthogonalLoop=1;jettySize=auto;html=1;" edge="1" parent="1" source="73XgOkGAvO3gkQtrD0CN-8" target="73XgOkGAvO3gkQtrD0CN-7">
          <mxGeometry relative="1" as="geometry" />
        </mxCell>
        <mxCell id="73XgOkGAvO3gkQtrD0CN-8" value="" style="points=[[0,0.5,0],[0.24,0,0],[0.5,0.28,0],[0.995,0.475,0],[0.5,0.72,0],[0.24,1,0]];verticalLabelPosition=bottom;sketch=0;html=1;verticalAlign=top;aspect=fixed;align=center;pointerEvents=1;shape=mxgraph.cisco19.key;fillColor=#005073;strokeColor=none;" vertex="1" parent="1">
          <mxGeometry x="170" y="478.75" width="50" height="22.5" as="geometry" />
        </mxCell>
        <mxCell id="73XgOkGAvO3gkQtrD0CN-10" value="" style="whiteSpace=wrap;html=1;aspect=fixed;" vertex="1" parent="1">
          <mxGeometry x="430" y="620" width="200" height="200" as="geometry" />
        </mxCell>
        <mxCell id="73XgOkGAvO3gkQtrD0CN-11" value="" style="dashed=0;outlineConnect=0;html=1;align=center;labelPosition=center;verticalLabelPosition=bottom;verticalAlign=top;shape=mxgraph.webicons.facebook;fillColor=#6294E4;gradientColor=#1A2665" vertex="1" parent="1">
          <mxGeometry x="475" y="710" width="60" height="50" as="geometry" />
        </mxCell>
        <mxCell id="73XgOkGAvO3gkQtrD0CN-13" style="edgeStyle=orthogonalEdgeStyle;rounded=0;orthogonalLoop=1;jettySize=auto;html=1;" edge="1" parent="1" source="73XgOkGAvO3gkQtrD0CN-12" target="73XgOkGAvO3gkQtrD0CN-11">
          <mxGeometry relative="1" as="geometry" />
        </mxCell>
        <mxCell id="73XgOkGAvO3gkQtrD0CN-12" value="" style="html=1;verticalLabelPosition=bottom;align=center;labelBackgroundColor=#ffffff;verticalAlign=top;strokeWidth=2;strokeColor=#0080F0;shadow=0;dashed=0;shape=mxgraph.ios7.icons.user;" vertex="1" parent="1">
          <mxGeometry x="60" y="700" width="70" height="70" as="geometry" />
        </mxCell>
        <mxCell id="73XgOkGAvO3gkQtrD0CN-17" style="edgeStyle=orthogonalEdgeStyle;rounded=0;orthogonalLoop=1;jettySize=auto;html=1;" edge="1" parent="1" source="73XgOkGAvO3gkQtrD0CN-15" target="73XgOkGAvO3gkQtrD0CN-16">
          <mxGeometry relative="1" as="geometry" />
        </mxCell>
        <mxCell id="73XgOkGAvO3gkQtrD0CN-15" value="" style="verticalLabelPosition=bottom;shadow=0;dashed=0;align=center;html=1;verticalAlign=top;strokeWidth=1;shape=mxgraph.mockup.containers.userMale;strokeColor=#666666;strokeColor2=#008cff;" vertex="1" parent="1">
          <mxGeometry x="193.34" y="625" width="70" height="70" as="geometry" />
        </mxCell>
        <mxCell id="73XgOkGAvO3gkQtrD0CN-16" value="&lt;b&gt;SSH&lt;/b&gt;" style="ellipse;whiteSpace=wrap;html=1;aspect=fixed;" vertex="1" parent="1">
          <mxGeometry x="470" y="630" width="60" height="60" as="geometry" />
        </mxCell>
        <mxCell id="73XgOkGAvO3gkQtrD0CN-18" value="&lt;b&gt;Mail&lt;/b&gt;" style="ellipse;whiteSpace=wrap;html=1;aspect=fixed;" vertex="1" parent="1">
          <mxGeometry x="450" y="760" width="50" height="50" as="geometry" />
        </mxCell>
        <mxCell id="73XgOkGAvO3gkQtrD0CN-19" value="&lt;b&gt;DB&lt;/b&gt;" style="ellipse;whiteSpace=wrap;html=1;aspect=fixed;" vertex="1" parent="1">
          <mxGeometry x="570" y="635" width="50" height="50" as="geometry" />
        </mxCell>
        <mxCell id="73XgOkGAvO3gkQtrD0CN-20" value="&lt;b&gt;FTP&lt;/b&gt;" style="ellipse;whiteSpace=wrap;html=1;aspect=fixed;" vertex="1" parent="1">
          <mxGeometry x="560" y="720" width="50" height="50" as="geometry" />
        </mxCell>
      </root>
    </mxGraphModel>
  </diagram>
</mxfile>
